<svg width="124" height="352" fill="none" xmlns="http://www.w3.org/2000/svg"><path clip-rule="evenodd" d="M185.248 17.983c-40.947-12.815-83.05-34.188-126.154 4.85C15.989 61.874-11.111 96.07 6.389 140.318s88.934 16.687 109.69 56.234c20.755 39.547-24.85 75.438-5.188 110.635 19.661 35.196 34.779 57.753 97.963 35.374 63.185-22.378 57.359-79.32 105.408-112.665 48.048-33.344 100.034-83.262 28.692-172.334-71.342-89.072-116.759-26.764-157.706-39.578Z" stroke="#9E96C6"/><path clip-rule="evenodd" d="M190.037 40.695c-33.343-10.404-67.629-27.759-102.73 3.94-35.101 31.697-57.17 59.464-42.918 95.392 14.25 35.927 72.421 13.549 89.322 45.66 16.902 32.11-20.235 61.253-4.224 89.831 16.01 28.578 28.321 46.894 79.774 28.723 51.452-18.17 46.708-64.405 85.835-91.48 39.128-27.074 81.461-67.606 23.365-139.93C260.365.509 223.381 51.1 190.037 40.696Z" stroke="#9E96C6"/><path clip-rule="evenodd" d="M200.203 54.055c-26.936-8.47-54.632-22.596-82.988 3.207-28.355 25.803-46.182 48.407-34.67 77.653 11.512 29.246 58.503 11.03 72.157 37.169 13.653 26.139-16.347 49.862-3.413 73.126 12.934 23.263 22.878 38.173 64.443 23.381 41.564-14.791 37.732-52.428 69.339-74.468 31.608-22.039 65.805-55.034 18.875-113.907-46.931-58.874-76.807-17.69-103.743-26.16Z" stroke="#9E96C6"/><path clip-rule="evenodd" d="M210.233 71.814c-21.831-6.827-44.279-18.214-67.26 2.585-22.982 20.798-37.43 39.017-28.1 62.59 9.331 23.574 47.416 8.891 58.482 29.96 11.066 21.069-13.248 40.191-2.766 58.942 10.482 18.751 18.543 30.769 52.23 18.846 33.687-11.922 30.581-42.259 56.198-60.024 25.618-17.764 53.334-44.359 15.298-91.813-38.037-47.454-62.251-14.259-84.082-21.086Z" stroke="#9E96C6"/></svg>